<mxfile host="app.diagrams.net" modified="2024-02-11T15:15:52.375Z" agent="Mozilla/5.0 (Windows NT 10.0; Win64; x64) AppleWebKit/537.36 (KHTML, like Gecko) Chrome/121.0.0.0 Safari/537.36" etag="NQTxGVhTzBXq7hLkhYhC" version="23.1.2" type="device">
  <diagram name="Page-1" id="zuGZ_qwArgNbEXP4C-fz">
    <mxGraphModel dx="2514" dy="868" grid="1" gridSize="10" guides="1" tooltips="1" connect="1" arrows="1" fold="1" page="1" pageScale="1" pageWidth="827" pageHeight="1169" math="0" shadow="0">
      <root>
        <mxCell id="0" />
        <mxCell id="1" parent="0" />
        <mxCell id="0afYeK-6-jsUDb6nJfks-8" style="edgeStyle=orthogonalEdgeStyle;rounded=0;orthogonalLoop=1;jettySize=auto;html=1;exitX=1;exitY=0.5;exitDx=0;exitDy=0;entryX=0;entryY=0.5;entryDx=0;entryDy=0;" edge="1" parent="1" source="0afYeK-6-jsUDb6nJfks-1" target="jTX__TKjI-a0dkv90z5b-4">
          <mxGeometry relative="1" as="geometry" />
        </mxCell>
        <mxCell id="0afYeK-6-jsUDb6nJfks-1" value="Pre-Processor [.NET]" style="rounded=0;whiteSpace=wrap;html=1;labelPosition=center;verticalLabelPosition=top;align=center;verticalAlign=bottom;fontStyle=1;fontSize=14;fillColor=none;dashed=1;strokeWidth=2;" vertex="1" parent="1">
          <mxGeometry x="-210" y="220.62" width="150" height="289.38" as="geometry" />
        </mxCell>
        <mxCell id="jTX__TKjI-a0dkv90z5b-48" value="Preparation" style="rounded=0;whiteSpace=wrap;html=1;labelPosition=center;verticalLabelPosition=top;align=center;verticalAlign=bottom;fontStyle=1;fontSize=14;fillColor=none;dashed=1;strokeWidth=1;" parent="1" vertex="1">
          <mxGeometry x="340" y="250" width="141.5" height="240" as="geometry" />
        </mxCell>
        <mxCell id="jTX__TKjI-a0dkv90z5b-49" value="Execution" style="rounded=0;whiteSpace=wrap;html=1;labelPosition=center;verticalLabelPosition=top;align=center;verticalAlign=bottom;fontStyle=1;fontSize=14;fillColor=none;dashed=1;strokeWidth=1;" parent="1" vertex="1">
          <mxGeometry x="520" y="250" width="141.5" height="240" as="geometry" />
        </mxCell>
        <mxCell id="0afYeK-6-jsUDb6nJfks-7" style="edgeStyle=orthogonalEdgeStyle;rounded=0;orthogonalLoop=1;jettySize=auto;html=1;exitX=1;exitY=0.5;exitDx=0;exitDy=0;entryX=0;entryY=0.5;entryDx=0;entryDy=0;" edge="1" parent="1" source="jTX__TKjI-a0dkv90z5b-25" target="0afYeK-6-jsUDb6nJfks-1">
          <mxGeometry relative="1" as="geometry" />
        </mxCell>
        <mxCell id="jTX__TKjI-a0dkv90z5b-25" value="Input" style="rounded=0;whiteSpace=wrap;html=1;labelPosition=center;verticalLabelPosition=top;align=center;verticalAlign=bottom;fontStyle=1;fontSize=14;fillColor=none;dashed=1;" parent="1" vertex="1">
          <mxGeometry x="-413" y="220.62" width="150" height="288.75" as="geometry" />
        </mxCell>
        <mxCell id="jTX__TKjI-a0dkv90z5b-26" value="Output" style="rounded=0;whiteSpace=wrap;html=1;labelPosition=center;verticalLabelPosition=top;align=center;verticalAlign=bottom;fontStyle=1;fontSize=14;fillColor=none;dashed=1;" parent="1" vertex="1">
          <mxGeometry x="740" y="220.62" width="150" height="288.75" as="geometry" />
        </mxCell>
        <mxCell id="jTX__TKjI-a0dkv90z5b-2" value="Config JSON" style="shape=note;whiteSpace=wrap;html=1;backgroundOutline=1;darkOpacity=0.05;fontStyle=1" parent="1" vertex="1">
          <mxGeometry x="-383" y="300" width="90" height="114.99" as="geometry" />
        </mxCell>
        <mxCell id="jTX__TKjI-a0dkv90z5b-51" style="edgeStyle=orthogonalEdgeStyle;rounded=0;orthogonalLoop=1;jettySize=auto;html=1;exitX=1;exitY=0.5;exitDx=0;exitDy=0;entryX=0;entryY=0.5;entryDx=0;entryDy=0;" parent="1" source="jTX__TKjI-a0dkv90z5b-4" target="jTX__TKjI-a0dkv90z5b-26" edge="1">
          <mxGeometry relative="1" as="geometry" />
        </mxCell>
        <mxCell id="jTX__TKjI-a0dkv90z5b-4" value="Simulator [MATLAB]" style="rounded=0;whiteSpace=wrap;html=1;labelPosition=center;verticalLabelPosition=top;align=center;verticalAlign=bottom;fontStyle=1;fontSize=14;fillColor=none;dashed=1;strokeWidth=2;" parent="1" vertex="1">
          <mxGeometry x="-20" y="220.62" width="710" height="288.75" as="geometry" />
        </mxCell>
        <mxCell id="jTX__TKjI-a0dkv90z5b-16" value="Build final &lt;b&gt;input &lt;/b&gt;profiles for simulation" style="rounded=1;whiteSpace=wrap;html=1;" parent="1" vertex="1">
          <mxGeometry x="-200" y="375.62" width="130" height="53.75" as="geometry" />
        </mxCell>
        <mxCell id="jTX__TKjI-a0dkv90z5b-18" value="Calculate and populate &lt;b&gt;geometric &lt;/b&gt;characteristics of tank" style="rounded=1;whiteSpace=wrap;html=1;" parent="1" vertex="1">
          <mxGeometry x="345.75" y="338.12" width="130" height="53.75" as="geometry" />
        </mxCell>
        <mxCell id="jTX__TKjI-a0dkv90z5b-21" value="Results JSON" style="shape=note;whiteSpace=wrap;html=1;backgroundOutline=1;darkOpacity=0.05;fontStyle=1" parent="1" vertex="1">
          <mxGeometry x="770" y="250" width="90" height="114.99" as="geometry" />
        </mxCell>
        <mxCell id="jTX__TKjI-a0dkv90z5b-23" value="&lt;b&gt;Plots&lt;/b&gt;" style="sketch=0;outlineConnect=0;fontColor=#232F3E;gradientColor=none;fillColor=#000000;strokeColor=none;dashed=0;verticalLabelPosition=bottom;verticalAlign=top;align=center;html=1;fontSize=12;fontStyle=0;aspect=fixed;pointerEvents=1;shape=mxgraph.aws4.container_registry_image;" parent="1" vertex="1">
          <mxGeometry x="785" y="400" width="60" height="60" as="geometry" />
        </mxCell>
        <mxCell id="jTX__TKjI-a0dkv90z5b-30" value="Call Simulation &lt;b&gt;model&lt;/b&gt;" style="rounded=1;whiteSpace=wrap;html=1;fillColor=#d5e8d4;strokeColor=#82b366;" parent="1" vertex="1">
          <mxGeometry x="525.75" y="338.12" width="130" height="53.75" as="geometry" />
        </mxCell>
        <mxCell id="jTX__TKjI-a0dkv90z5b-33" value="Extraction" style="rounded=0;whiteSpace=wrap;html=1;labelPosition=center;verticalLabelPosition=top;align=center;verticalAlign=bottom;fontStyle=1;fontSize=14;fillColor=none;dashed=1;strokeWidth=1;" parent="1" vertex="1">
          <mxGeometry y="250" width="310" height="240" as="geometry" />
        </mxCell>
        <mxCell id="jTX__TKjI-a0dkv90z5b-45" value="" style="edgeStyle=orthogonalEdgeStyle;rounded=0;orthogonalLoop=1;jettySize=auto;html=1;" parent="1" source="jTX__TKjI-a0dkv90z5b-34" target="jTX__TKjI-a0dkv90z5b-37" edge="1">
          <mxGeometry relative="1" as="geometry" />
        </mxCell>
        <mxCell id="jTX__TKjI-a0dkv90z5b-34" value="&lt;b&gt;Physical &lt;/b&gt;tank characteristics" style="rounded=1;whiteSpace=wrap;html=1;" parent="1" vertex="1">
          <mxGeometry x="170" y="300" width="130" height="53.75" as="geometry" />
        </mxCell>
        <mxCell id="jTX__TKjI-a0dkv90z5b-36" value="&lt;b style=&quot;border-color: var(--border-color);&quot;&gt;simulation&amp;nbsp;&lt;/b&gt;parameters" style="rounded=1;whiteSpace=wrap;html=1;" parent="1" vertex="1">
          <mxGeometry x="10" y="383.12" width="130" height="53.75" as="geometry" />
        </mxCell>
        <mxCell id="jTX__TKjI-a0dkv90z5b-46" value="" style="edgeStyle=orthogonalEdgeStyle;rounded=0;orthogonalLoop=1;jettySize=auto;html=1;" parent="1" source="jTX__TKjI-a0dkv90z5b-37" target="jTX__TKjI-a0dkv90z5b-36" edge="1">
          <mxGeometry relative="1" as="geometry" />
        </mxCell>
        <mxCell id="jTX__TKjI-a0dkv90z5b-37" value="&lt;b&gt;Event &lt;/b&gt;profiles&amp;nbsp;" style="rounded=1;whiteSpace=wrap;html=1;" parent="1" vertex="1">
          <mxGeometry x="170" y="383.12" width="130" height="53.75" as="geometry" />
        </mxCell>
        <mxCell id="jTX__TKjI-a0dkv90z5b-44" value="" style="edgeStyle=orthogonalEdgeStyle;rounded=0;orthogonalLoop=1;jettySize=auto;html=1;" parent="1" source="jTX__TKjI-a0dkv90z5b-43" target="jTX__TKjI-a0dkv90z5b-34" edge="1">
          <mxGeometry relative="1" as="geometry" />
        </mxCell>
        <mxCell id="jTX__TKjI-a0dkv90z5b-43" value="&lt;b&gt;metadata&lt;/b&gt; of entry" style="rounded=1;whiteSpace=wrap;html=1;" parent="1" vertex="1">
          <mxGeometry x="10" y="300" width="130" height="53.75" as="geometry" />
        </mxCell>
        <mxCell id="0afYeK-6-jsUDb6nJfks-3" value="" style="edgeStyle=orthogonalEdgeStyle;rounded=0;orthogonalLoop=1;jettySize=auto;html=1;" edge="1" parent="1" source="0afYeK-6-jsUDb6nJfks-2" target="jTX__TKjI-a0dkv90z5b-16">
          <mxGeometry relative="1" as="geometry" />
        </mxCell>
        <mxCell id="0afYeK-6-jsUDb6nJfks-2" value="&lt;b&gt;Deserialise &lt;/b&gt;config file and validate schema" style="rounded=1;whiteSpace=wrap;html=1;" vertex="1" parent="1">
          <mxGeometry x="-200" y="285.62" width="130" height="53.75" as="geometry" />
        </mxCell>
      </root>
    </mxGraphModel>
  </diagram>
</mxfile>
